<svg width="170" height="64" viewBox="0 0 170 64" fill="none" xmlns="http://www.w3.org/2000/svg">
<path d="M86.6581 5.85297e-05H90.3437V13.151H97.8128V16.4509H86.6581V5.85297e-05Z" fill="black"/>
<path d="M98.633 10.3075C98.633 6.83372 100.654 3.94389 104.646 3.94389C108.402 3.94389 110.516 6.59743 110.516 9.93269V11.2717H102.321C102.343 12.703 103.074 13.7161 104.717 13.7161C106.056 13.7161 106.643 13.0588 106.854 12.4966H110.353C110.024 14.702 108.074 16.6521 104.717 16.6521C100.841 16.6494 98.633 13.8302 98.633 10.3075ZM106.83 8.99295C106.759 7.81964 106.078 6.90434 104.657 6.90434C103.106 6.90434 102.425 7.81964 102.354 8.99295H106.83Z" fill="black"/>
<path d="M113.568 12.5154V7.23278H111.583V4.15555H113.756V0.939792H117.208V4.15555H120.144V7.23278H117.208V11.6463C117.208 12.7979 117.699 13.2922 118.78 13.2922H120.19V16.4509H117.699C114.842 16.4509 113.568 14.748 113.568 12.5154Z" fill="black"/>
<path d="M122.175 2.88718V5.85297e-05H125.839V2.88718L125.228 6.57553H122.784L122.175 2.88718Z" fill="black"/>
<path d="M127.355 12.2818H130.97C130.97 12.9635 131.513 13.6398 132.803 13.6398C134.093 13.6398 134.539 13.1699 134.539 12.7489C134.539 12.2057 134.139 11.9504 133.295 11.7848L131.486 11.4344C129.514 11.0569 127.73 10.0465 127.73 7.58308C127.73 5.58682 129.49 3.94091 132.779 3.94091C135.973 3.94091 137.898 5.77422 137.898 8.05024H134.33C134.351 7.48802 133.93 6.78458 132.7 6.78458C131.806 6.78458 131.269 7.15938 131.269 7.62925C131.269 8.09912 131.597 8.35715 132.184 8.47394L134.531 8.91936C136.41 9.27244 138.17 10.1416 138.17 12.7218C138.17 15.2585 135.916 16.6437 132.795 16.6437C128.965 16.6491 127.425 14.7941 127.355 12.2818Z" fill="black"/>
<path d="M90.3791 36.2781H90.2867L89.9119 37.4514H86.669V20.0689H90.2867V26.3402H90.3791C90.9684 25.634 91.9055 24.955 93.6383 24.955C96.74 24.955 98.6167 27.6303 98.6167 31.2942C98.6167 34.9581 96.74 37.6578 93.6383 37.6578C91.9055 37.6524 90.9684 36.9706 90.3791 36.2781ZM94.9582 31.2996C94.9582 29.5858 94.3716 28.13 92.541 28.13C90.7104 28.13 90.1265 29.575 90.1265 31.2888C90.1265 33.0026 90.762 34.4828 92.5464 34.4828C94.3308 34.4828 94.9582 33.0026 94.9582 31.2888V31.2996Z" fill="black"/>
<path d="M100.385 33.2383V25.1582H104V32.1112C104 33.5181 104.635 34.3655 106.067 34.3655C107.36 34.3655 108.299 33.4502 108.299 31.97V25.1582H111.914V37.44H108.674L108.403 36.2667H108.31C107.628 37.0652 106.547 37.6519 104.95 37.6519C102.215 37.6519 100.385 35.9381 100.385 33.2383Z" fill="black"/>
<path d="M113.864 20.0414H117.716V23.7026H113.864V20.0414ZM113.981 25.1583H117.596V37.4402H113.981V25.1583Z" fill="black"/>
<path d="M119.709 20.0633H123.327V37.4458H119.709V20.0633Z" fill="black"/>
<path d="M124.853 31.2886C124.853 27.6247 126.733 24.9494 129.832 24.9494C131.57 24.9494 132.507 25.6285 133.091 26.3346H133.183V20.0633H136.801V37.4458H133.561L133.183 36.2725H133.091C132.502 36.9759 131.565 37.6577 129.832 37.6577C126.733 37.6522 124.853 34.977 124.853 31.2886ZM133.355 31.2886C133.355 29.5748 132.768 28.119 130.935 28.119C129.101 28.119 128.517 29.5748 128.517 31.2886C128.517 33.0024 129.15 34.4826 130.935 34.4826C132.719 34.4826 133.355 33.0024 133.355 31.2886Z" fill="black"/>
<path d="M85.9276 52.2587C85.9276 48.5459 88.1004 45.9168 92.0114 45.9168C95.6509 45.9168 97.5303 48.1249 97.6933 50.9659H94.0539C93.9371 49.8795 93.1847 49.0864 92.0114 49.0864C90.485 49.0864 89.6159 50.0506 89.6159 52.2587C89.6159 54.4668 90.485 55.45 92.0114 55.45C92.5296 55.4664 93.0337 55.2791 93.4155 54.9282C93.7972 54.5774 94.0264 54.091 94.0539 53.5732H97.6933C97.5303 56.4142 95.6726 58.6223 92.1038 58.6223C88.1819 58.6223 85.9276 55.9905 85.9276 52.2587Z" fill="black"/>
<path d="M99.4532 41.0336H103.071V47.3022H103.166C103.845 46.5037 104.926 45.917 106.523 45.917C109.239 45.917 111.078 47.6091 111.078 50.3332V58.4106H107.463V51.4604C107.463 50.0508 106.827 49.2034 105.396 49.2034C104.103 49.2034 103.071 50.1214 103.071 51.5989V58.4106H99.4532V41.0336Z" fill="black"/>
<path d="M112.604 54.7712C112.604 52.4925 114.155 50.9905 117.536 50.9905H120.165V50.3333C120.165 49.4859 119.622 48.8286 118.289 48.8286C117.162 48.8286 116.504 49.4397 116.504 50.1866H113.12C113.12 47.8834 114.788 45.9116 118.406 45.9116C121.762 45.9116 123.783 47.7666 123.783 50.3278V58.4052H120.546L120.274 57.2998H120.179C119.497 58.0766 118.419 58.6171 116.89 58.6171C114.131 58.6225 112.604 56.9549 112.604 54.7712ZM120.165 53.932V53.4159H117.83C116.681 53.4159 116.162 53.932 116.162 54.5892C116.162 55.2954 116.727 55.8115 117.808 55.8115C119.296 55.8033 120.165 54.9342 120.165 53.932Z" fill="black"/>
<path d="M125.896 46.1287H129.137L129.408 47.302H129.501C130.182 46.5035 131.263 45.9168 132.86 45.9168C135.576 45.9168 137.415 47.6306 137.415 50.333V58.4104H133.8V51.4602C133.8 50.0506 133.164 49.2032 131.733 49.2032C130.44 49.2032 129.501 50.1212 129.501 51.5987V58.4104H125.896V46.1287Z" fill="black"/>
<path d="M139.305 59.467H142.836C142.931 60.2818 143.754 60.8983 144.881 60.8983C146.478 60.8983 147.274 60.0536 147.274 58.9509V57.2344H147.182C146.595 57.9406 145.655 58.6223 143.922 58.6223C140.823 58.6223 138.944 55.9443 138.944 52.2804C138.944 48.6165 140.823 45.9168 143.922 45.9168C145.661 45.9168 146.6 46.5985 147.182 47.302H147.274L147.652 46.1287H150.892V58.9971C150.892 62.0744 148.309 64 144.881 64C141.581 64 139.376 62.2373 139.305 59.467ZM147.453 52.2804C147.453 50.5666 146.82 49.0864 145.033 49.0864C143.246 49.0864 142.616 50.5666 142.616 52.2804C142.616 53.9942 143.203 55.45 145.033 55.45C146.864 55.45 147.453 53.9942 147.453 52.2804Z" fill="black"/>
<path d="M152.432 52.2804C152.432 48.8066 154.45 45.9168 158.442 45.9168C162.201 45.9168 164.314 48.5703 164.314 51.892V53.231H156.126C156.15 54.6624 156.878 55.6754 158.521 55.6754C159.86 55.6754 160.447 55.0182 160.659 54.4532H164.157C163.828 56.6613 161.881 58.6114 158.521 58.6114C154.64 58.6223 152.432 55.8031 152.432 52.2804ZM160.626 50.9659C160.555 49.7926 159.876 48.8745 158.453 48.8745C156.905 48.8745 156.223 49.7926 156.153 50.9659H160.626Z" fill="black"/>
<path d="M165.841 54.7468H169.705V58.4107H165.854L165.841 54.7468Z" fill="black"/>
<path d="M34.1348 41.3269L0 21.6168V38.687L34.1348 58.3944L68.2723 38.687V21.6168L34.1348 41.3269Z" fill="black"/>
<path d="M41.87 0L24.8026 9.85369V26.9238L41.87 17.0674V0Z" fill="black"/>
</svg>
