<svg width="258" height="36" viewBox="0 0 258 36" fill="none" xmlns="http://www.w3.org/2000/svg">
<g clip-path="url(#clip0_2081_2474)">
<path d="M21.5854 25.478L0.546875 13.3267V23.8504L21.5854 36L42.6256 23.8504V13.3267L21.5854 25.478Z" fill="black"/>
<path d="M26.3529 0L15.8336 6.0748V16.5985L26.3529 10.5221V0Z" fill="black"/>
</g>
<path d="M61.4477 27.5H67.4797C72.9137 27.5 75.5917 23.47 75.5917 18.4C75.5917 12.94 72.6537 9.3 67.4797 9.3H61.4477V27.5ZM63.7097 25.446V11.38H67.2457C71.4317 11.38 73.2517 14.63 73.2517 18.4C73.2517 22.196 71.4317 25.446 67.2457 25.446H63.7097ZM84.4863 27.734C87.3203 27.734 89.6603 26.096 90.0243 23.652H87.8403C87.4763 25.056 86.2283 25.784 84.4863 25.784C82.0163 25.784 80.7423 24.042 80.7423 21.52H90.2063V20.454C90.2063 16.762 88.2043 13.98 84.4603 13.98C80.3523 13.98 78.4543 17.022 78.4543 20.87C78.4543 24.77 80.5603 27.734 84.4863 27.734ZM80.7683 19.7C80.8463 17.62 81.9643 15.93 84.4603 15.93C86.8263 15.93 87.9443 17.594 87.9443 19.7H80.7683ZM96.8651 27.5H99.1271L104.275 14.474V14.214H102.013L98.0871 24.952H97.9831L93.9011 14.214H91.6391V14.474L96.8651 27.5ZM111.756 27.734C114.59 27.734 116.93 26.096 117.294 23.652H115.11C114.746 25.056 113.498 25.784 111.756 25.784C109.286 25.784 108.012 24.042 108.012 21.52H117.476V20.454C117.476 16.762 115.474 13.98 111.73 13.98C107.622 13.98 105.724 17.022 105.724 20.87C105.724 24.77 107.83 27.734 111.756 27.734ZM108.038 19.7C108.116 17.62 109.234 15.93 111.73 15.93C114.096 15.93 115.214 17.594 115.214 19.7H108.038ZM121.11 27.5H123.294V8.26H121.11V27.5ZM132.677 27.734C136.837 27.734 138.683 24.666 138.683 20.87C138.683 17.048 136.785 13.98 132.677 13.98C128.569 13.98 126.671 17.048 126.671 20.87C126.671 24.692 128.517 27.734 132.677 27.734ZM132.677 25.784C129.999 25.784 128.881 23.73 128.881 20.87C128.881 18.036 129.973 15.93 132.677 15.93C135.381 15.93 136.473 18.01 136.473 20.87C136.473 23.73 135.381 25.784 132.677 25.784ZM142.311 33.454H144.495V25.654H144.599C145.301 26.824 146.627 27.734 148.603 27.734C152.347 27.734 154.219 24.796 154.245 20.87C154.219 16.58 152.087 13.98 148.603 13.98C146.627 13.98 145.301 14.89 144.599 16.06H144.495L144.209 14.214H142.311V33.454ZM148.239 25.784C145.587 25.784 144.443 23.496 144.443 20.87C144.443 18.218 145.587 15.93 148.239 15.93C150.995 15.93 152.035 18.192 152.035 20.87C152.035 23.522 150.995 25.784 148.239 25.784ZM162.867 27.734C165.701 27.734 168.041 26.096 168.405 23.652H166.221C165.857 25.056 164.609 25.784 162.867 25.784C160.397 25.784 159.123 24.042 159.123 21.52H168.587V20.454C168.587 16.762 166.585 13.98 162.841 13.98C158.733 13.98 156.835 17.022 156.835 20.87C156.835 24.77 158.941 27.734 162.867 27.734ZM159.149 19.7C159.227 17.62 160.345 15.93 162.841 15.93C165.207 15.93 166.325 17.594 166.325 19.7H159.149ZM172.221 27.5H174.405V21.052C174.405 17.932 175.549 16.164 178.071 16.164H179.111V14.058H177.915C176.277 14.058 174.951 14.968 174.405 16.45H174.301L174.119 14.214H172.221V27.5ZM190.407 27.5H192.669V20.896H197.115C200.781 20.896 203.121 18.53 203.121 15.046C203.121 11.666 200.833 9.3 197.115 9.3H190.407V27.5ZM192.669 18.816V11.354H196.829C199.273 11.354 200.781 12.706 200.781 15.046C200.781 17.49 199.351 18.816 196.829 18.816H192.669ZM211.21 27.734C215.37 27.734 217.216 24.666 217.216 20.87C217.216 17.048 215.318 13.98 211.21 13.98C207.102 13.98 205.204 17.048 205.204 20.87C205.204 24.692 207.05 27.734 211.21 27.734ZM211.21 25.784C208.532 25.784 207.414 23.73 207.414 20.87C207.414 18.036 208.506 15.93 211.21 15.93C213.914 15.93 215.006 18.01 215.006 20.87C215.006 23.73 213.914 25.784 211.21 25.784ZM220.844 27.5H223.028V21.052C223.028 17.932 224.172 16.164 226.694 16.164H227.734V14.058H226.538C224.9 14.058 223.574 14.968 223.028 16.45H222.924L222.742 14.214H220.844V27.5ZM235.395 27.734C236.227 27.734 236.955 27.63 237.371 27.526V25.654H237.111C236.825 25.732 236.435 25.81 235.811 25.81C234.615 25.81 234.069 25.264 234.069 23.99V16.06H237.319V14.214H234.069V10.652H233.809L231.937 11.38V14.214H229.675V16.06H231.885V24.172C231.885 26.382 232.769 27.734 235.395 27.734ZM244.465 27.734C246.337 27.734 247.819 26.98 248.625 25.628H248.729L248.885 27.5H250.731V18.556C250.731 16.034 248.937 13.98 245.531 13.98C242.619 13.98 240.487 15.67 240.487 18.218H242.593C242.619 16.944 243.581 15.852 245.531 15.852C247.689 15.852 248.599 17.126 248.599 18.608V19.934C247.767 19.7 246.727 19.466 245.323 19.466C241.423 19.466 239.837 21.39 239.837 23.626C239.837 25.94 241.579 27.734 244.465 27.734ZM244.855 25.914C242.931 25.914 242.047 24.926 242.047 23.6C242.047 22.04 243.165 21.208 245.323 21.208C246.493 21.208 247.507 21.338 248.599 21.676V22.352C248.599 24.276 247.117 25.914 244.855 25.914ZM255.147 27.5H257.331V8.26H255.147V27.5Z" fill="black"/>
<defs>
<clipPath id="clip0_2081_2474">
<rect width="42.3" height="36" fill="white" transform="translate(0.546875)"/>
</clipPath>
</defs>
</svg>
