<?xml version="1.0" encoding="utf-8"?>
<svg viewBox="0 0 500 135" xmlns="http://www.w3.org/2000/svg">
  <defs/>
  <rect width="500" height="135" style="stroke: rgb(0, 0, 0); fill: rgb(13, 17, 24);"/>
  <g transform="matrix(0.686494, 0, 0, 0.686494, -85.642006, -104.12339)" style="">
    <path d="M 395.296 295.176 L 410.722 295.176 L 434.981 228.728 L 418.105 228.728 L 402.943 275.927 L 387.781 228.728 L 371.037 228.728 L 395.296 295.176 Z" fill="white"/>
    <path d="M 466.134 296.231 C 486.305 296.231 500.808 281.728 500.808 261.952 C 500.808 242.176 486.305 227.673 466.134 227.673 C 445.962 227.673 431.459 242.176 431.459 261.952 C 431.459 281.728 445.962 296.231 466.134 296.231 Z M 466.134 281.86 C 455.322 281.86 448.203 273.818 448.203 261.952 C 448.203 250.086 455.322 242.044 466.134 242.044 C 476.813 242.044 484.064 250.086 484.064 261.952 C 484.064 273.818 476.813 281.86 466.134 281.86 Z" fill="white"/>
    <path d="M 539.168 296.231 C 555.912 296.231 567.909 287.793 570.414 273.818 L 554.198 270.522 C 552.616 277.641 547.474 281.86 539.695 281.86 C 529.412 281.86 522.688 274.082 522.688 261.952 C 522.688 249.823 529.412 242.044 539.695 242.044 C 547.474 242.044 553.011 246.79 554.198 253.778 L 570.414 250.614 C 568.173 236.507 556.176 227.673 539.168 227.673 C 519.26 227.673 505.416 241.649 505.416 261.952 C 505.416 282.256 519.26 296.231 539.168 296.231 Z" fill="white"/>
    <path d="M 605.688 296.231 C 613.995 296.231 621.378 292.803 624.674 287.529 L 624.674 295.176 L 641.286 295.176 L 641.286 201.832 L 624.674 201.832 L 624.674 236.111 C 620.85 231.101 613.731 227.673 605.425 227.673 C 585.78 227.673 574.046 241.649 574.046 261.952 C 574.046 282.256 585.78 296.231 605.688 296.231 Z M 608.062 281.86 C 597.514 281.86 590.527 273.95 590.527 261.952 C 590.527 249.955 597.514 242.044 608.062 242.044 C 618.741 242.044 625.728 249.955 625.728 261.952 C 625.728 273.95 618.741 281.86 608.062 281.86 Z" fill="white"/>
    <path d="M 681.291 296.231 C 701.463 296.231 715.965 281.728 715.965 261.952 C 715.965 242.176 701.463 227.673 681.291 227.673 C 661.119 227.673 646.616 242.176 646.616 261.952 C 646.616 281.728 661.119 296.231 681.291 296.231 Z M 681.291 281.86 C 670.48 281.86 663.36 273.818 663.36 261.952 C 663.36 250.086 670.48 242.044 681.291 242.044 C 691.97 242.044 699.221 250.086 699.221 261.952 C 699.221 273.818 691.97 281.86 681.291 281.86 Z" fill="white"/>
    <path d="M 721.201 295.176 L 737.813 295.176 L 737.813 266.039 C 737.813 251.141 743.746 242.44 753.898 242.44 C 761.677 242.44 766.555 247.845 766.555 255.624 L 766.555 295.176 L 783.167 295.176 L 783.167 251.669 C 783.167 237.166 773.411 227.673 758.908 227.673 C 749.547 227.673 742.032 232.288 737.813 238.748 L 737.813 228.728 L 721.201 228.728 L 721.201 295.176 Z" fill="white"/>
    <path d="M 791.969 295.176 L 808.581 295.176 L 808.581 228.728 L 791.969 228.728 L 791.969 295.176 Z" fill="white"/>
    <circle cx="799.989" cy="211.908" r="9.913" fill="white"/>
    <path d="M 167.942 237.649 L 167.942 275.19 C 167.942 276.93 168.857 278.542 170.352 279.433 L 247.912 325.682 C 249.47 326.612 251.413 326.612 252.972 325.682 L 330.532 279.433 C 332.027 278.542 332.942 276.93 332.942 275.19 L 332.942 237.649 C 332.942 236.214 331.381 235.324 330.146 236.055 L 252.959 281.764 C 251.407 282.683 249.477 282.683 247.925 281.764 L 170.738 236.055 C 169.503 235.324 167.942 236.214 167.942 237.649 Z" fill="white"/>
    <path d="M 220.092 175.476 L 220.092 213.165 C 220.092 214.907 221.009 216.52 222.506 217.41 L 262.906 241.45 C 264.141 242.185 265.706 241.295 265.706 239.858 L 265.706 202.319 C 265.706 200.582 264.794 198.973 263.304 198.081 L 222.896 173.886 C 221.661 173.147 220.092 174.036 220.092 175.476 Z" fill="white"/>
  </g>
</svg>