<svg width="56" height="84" viewBox="0 0 56 84" fill="none" xmlns="http://www.w3.org/2000/svg">
<path d="M14.2319 11.5302L24.3417 6.01561C26.392 4.89893 28.8594 4.90103 30.9077 6.02104L41.0175 11.5356C42.1162 12.1352 43.034 13.0243 43.6738 14.1091C44.3137 15.1937 44.6516 16.4333 44.6518 17.6965V30.8043C44.6518 34.5202 42.9064 37.9398 39.1499 41.5749C36.6623 43.9978 33.4925 46.2508 30.4274 48.4294L30.2214 48.5758L28.5452 49.7714C28.2754 49.9649 27.9527 50.0691 27.622 50.0691C27.2912 50.0691 26.9687 49.9649 26.6989 49.7714L25.0227 48.5758L24.966 48.5355C21.8549 46.3239 18.6381 44.0372 16.0942 41.5749C12.3429 37.9398 10.5977 34.5202 10.5977 30.8043V17.6965C10.5969 16.4324 10.9343 15.1915 11.5742 14.1059C12.2142 13.0202 13.1326 12.1302 14.2319 11.5302Z" fill="black"/>
<path d="M7.25668 67.1134C8.10668 66.7734 8.63668 66.0134 8.63668 65.0034C8.63668 63.8134 7.73668 62.7734 6.24668 62.7734H3.04668V69.7734H4.61668V67.3034H5.59668L7.10668 69.7734H8.94668V69.6734L7.25668 67.1134ZM4.61668 64.1734H6.16668C6.77668 64.1734 7.02668 64.5934 7.02668 65.0134C7.02668 65.4534 6.79668 65.9034 6.16668 65.9034H4.61668V64.1734ZM11.8859 69.8634C13.3159 69.8634 14.1459 69.0334 14.2859 68.0934H12.7959C12.7059 68.3334 12.4559 68.6134 11.8859 68.6134C11.1859 68.6134 10.8759 68.1834 10.8659 67.5734H14.3559V67.0034C14.3559 65.5834 13.4559 64.4534 11.8559 64.4534C10.1559 64.4534 9.2959 65.6834 9.2959 67.1634C9.2959 68.6634 10.2359 69.8634 11.8859 69.8634ZM10.8759 66.6034C10.9059 66.1034 11.1959 65.7134 11.8559 65.7134C12.4659 65.7134 12.7559 66.1034 12.7859 66.6034H10.8759ZM17.1725 69.8634C18.5025 69.8634 19.4625 69.2734 19.4625 68.1934C19.4625 67.0934 18.7125 66.7234 17.9125 66.5734L16.9125 66.3834C16.6625 66.3334 16.5225 66.2234 16.5225 66.0234C16.5225 65.8234 16.7525 65.6634 17.1325 65.6634C17.6525 65.6634 17.8325 65.9634 17.8225 66.2034H19.3425C19.3425 65.2334 18.5225 64.4534 17.1625 64.4534C15.7625 64.4534 15.0125 65.1534 15.0125 66.0034C15.0125 67.0534 15.7725 67.4834 16.6125 67.6434L17.3825 67.7934C17.7425 67.8634 17.9125 67.9734 17.9125 68.2034C17.9125 68.3834 17.7225 68.5834 17.1725 68.5834C16.6225 68.5834 16.3925 68.2934 16.3925 68.0034H14.8525C14.8825 69.0734 15.5425 69.8634 17.1725 69.8634ZM20.99 64.0134C21.58 64.0134 21.92 63.6734 21.92 63.1134C21.92 62.5634 21.58 62.2234 20.99 62.2234C20.38 62.2234 20.06 62.5634 20.06 63.1134C20.06 63.6734 20.38 64.0134 20.99 64.0134ZM20.21 69.7734H21.75V64.5434H20.21V69.7734ZM22.6514 69.7734H24.1914V66.8734C24.1914 66.2434 24.5914 65.8534 25.1414 65.8534C25.7514 65.8534 26.0214 66.2134 26.0214 66.8134V69.7734H27.5614V66.3334C27.5614 65.1734 26.7814 64.4534 25.6214 64.4534C24.9414 64.4534 24.4814 64.7034 24.1914 65.0434H24.1514L24.0314 64.5434H22.6514V69.7734ZM30.5319 69.8634C31.8619 69.8634 32.8219 69.2734 32.8219 68.1934C32.8219 67.0934 32.0719 66.7234 31.2719 66.5734L30.2719 66.3834C30.0219 66.3334 29.8819 66.2234 29.8819 66.0234C29.8819 65.8234 30.1119 65.6634 30.4919 65.6634C31.0119 65.6634 31.1919 65.9634 31.1819 66.2034H32.7019C32.7019 65.2334 31.8819 64.4534 30.5219 64.4534C29.1219 64.4534 28.3719 65.1534 28.3719 66.0034C28.3719 67.0534 29.1319 67.4834 29.9719 67.6434L30.7419 67.7934C31.1019 67.8634 31.2719 67.9734 31.2719 68.2034C31.2719 68.3834 31.0819 68.5834 30.5319 68.5834C29.9819 68.5834 29.7519 68.2934 29.7519 68.0034H28.2119C28.2419 69.0734 28.9019 69.8634 30.5319 69.8634ZM35.8693 69.8634C36.3593 69.8634 36.7693 69.7734 36.9293 69.7134V68.4334H36.8293C36.6693 68.4934 36.4993 68.5234 36.3293 68.5234C35.8693 68.5234 35.6593 68.3134 35.6593 67.8234V65.8534H36.9093V64.5434H35.6593V63.1734H35.5593L34.1893 63.4534V64.5434H33.2693V65.8534H34.1193V68.1934C34.1193 69.1434 34.6593 69.8634 35.8693 69.8634ZM39.456 69.8634C40.106 69.8634 40.566 69.6334 40.856 69.3034H40.896L41.006 69.7734H42.386V66.3334C42.386 65.2434 41.526 64.4534 40.096 64.4534C38.556 64.4534 37.846 65.2934 37.846 66.2734H39.286C39.286 65.9534 39.566 65.6934 40.046 65.6934C40.616 65.6934 40.846 65.9734 40.846 66.3334V66.7634C40.636 66.6934 40.116 66.6134 39.726 66.6134C38.286 66.6134 37.626 67.2534 37.626 68.2234C37.626 69.1534 38.276 69.8634 39.456 69.8634ZM39.846 68.6634C39.386 68.6634 39.146 68.4434 39.146 68.1434C39.146 67.8634 39.406 67.6434 39.906 67.6434C40.206 67.6434 40.526 67.6834 40.846 67.8134V67.8634C40.846 68.2934 40.476 68.6634 39.846 68.6634ZM43.2861 69.7734H44.8261V66.8734C44.8261 66.2434 45.2261 65.8534 45.7761 65.8534C46.3861 65.8534 46.6561 66.2134 46.6561 66.8134V69.7734H48.1961V66.3334C48.1961 65.1734 47.4161 64.4534 46.2561 64.4534C45.5761 64.4534 45.1161 64.7034 44.8261 65.0434H44.7861L44.6661 64.5434H43.2861V69.7734ZM51.3967 69.8634C51.8867 69.8634 52.2967 69.7734 52.4567 69.7134V68.4334H52.3567C52.1967 68.4934 52.0267 68.5234 51.8567 68.5234C51.3967 68.5234 51.1867 68.3134 51.1867 67.8234V65.8534H52.4367V64.5434H51.1867V63.1734H51.0867L49.7167 63.4534V64.5434H48.7967V65.8534H49.6467V68.1934C49.6467 69.1434 50.1867 69.8634 51.3967 69.8634ZM5.10895 80.8634C6.88895 80.8634 8.06895 79.6434 8.20895 78.2034H6.61895C6.49895 78.8634 6.04895 79.4534 5.10895 79.4534C3.94895 79.4534 3.31895 78.6934 3.31895 77.2834C3.31895 75.8734 3.94895 75.1034 5.10895 75.1034C6.08895 75.1034 6.54895 75.7434 6.60895 76.4134H8.20895C8.10895 74.9334 6.89895 73.6834 5.10895 73.6834C2.85895 73.6834 1.71895 75.2634 1.71895 77.2834C1.71895 79.2734 2.85895 80.8634 5.10895 80.8634ZM11.3488 80.8634C12.7788 80.8634 13.6088 80.0334 13.7488 79.0934H12.2588C12.1688 79.3334 11.9188 79.6134 11.3488 79.6134C10.6488 79.6134 10.3388 79.1834 10.3288 78.5734H13.8188V78.0034C13.8188 76.5834 12.9188 75.4534 11.3188 75.4534C9.61879 75.4534 8.75879 76.6834 8.75879 78.1634C8.75879 79.6634 9.69879 80.8634 11.3488 80.8634ZM10.3388 77.6034C10.3688 77.1034 10.6588 76.7134 11.3188 76.7134C11.9288 76.7134 12.2188 77.1034 12.2488 77.6034H10.3388ZM14.5654 80.7734H16.1054V77.8734C16.1054 77.2434 16.5054 76.8534 17.0554 76.8534C17.6654 76.8534 17.9354 77.2134 17.9354 77.8134V80.7734H19.4754V77.3334C19.4754 76.1734 18.6954 75.4534 17.5354 75.4534C16.8554 75.4534 16.3954 75.7034 16.1054 76.0434H16.0654L15.9454 75.5434H14.5654V80.7734ZM22.446 80.8634C23.776 80.8634 24.736 80.2734 24.736 79.1934C24.736 78.0934 23.986 77.7234 23.186 77.5734L22.186 77.3834C21.936 77.3334 21.796 77.2234 21.796 77.0234C21.796 76.8234 22.026 76.6634 22.406 76.6634C22.926 76.6634 23.106 76.9634 23.096 77.2034H24.616C24.616 76.2334 23.796 75.4534 22.436 75.4534C21.036 75.4534 20.286 76.1534 20.286 77.0034C20.286 78.0534 21.046 78.4834 21.886 78.6434L22.656 78.7934C23.016 78.8634 23.186 78.9734 23.186 79.2034C23.186 79.3834 22.996 79.5834 22.446 79.5834C21.896 79.5834 21.666 79.2934 21.666 79.0034H20.126C20.156 80.0734 20.816 80.8634 22.446 80.8634ZM27.8434 80.8634C29.5434 80.8634 30.4534 79.7234 30.4534 78.1634C30.4534 76.5934 29.5234 75.4534 27.8434 75.4534C26.1634 75.4534 25.2334 76.5934 25.2334 78.1634C25.2334 79.7334 26.1434 80.8634 27.8434 80.8634ZM27.8434 79.5134C27.2134 79.5134 26.8034 79.1134 26.8034 78.1634C26.8034 77.2234 27.2034 76.8034 27.8434 76.8034C28.4834 76.8034 28.8834 77.2134 28.8834 78.1634C28.8834 79.1134 28.4834 79.5134 27.8434 79.5134ZM31.2061 80.7734H32.6461V78.1934C32.6461 77.3534 33.1161 76.8634 33.8461 76.8634H34.3461V75.4534H33.9861C33.3161 75.4534 32.8761 75.8434 32.6461 76.3034H32.6061L32.4861 75.5434H31.2061V80.7734ZM37.1628 80.8634C38.4928 80.8634 39.4528 80.2734 39.4528 79.1934C39.4528 78.0934 38.7028 77.7234 37.9028 77.5734L36.9028 77.3834C36.6528 77.3334 36.5128 77.2234 36.5128 77.0234C36.5128 76.8234 36.7428 76.6634 37.1228 76.6634C37.6428 76.6634 37.8228 76.9634 37.8128 77.2034H39.3328C39.3328 76.2334 38.5128 75.4534 37.1528 75.4534C35.7528 75.4534 35.0028 76.1534 35.0028 77.0034C35.0028 78.0534 35.7628 78.4834 36.6028 78.6434L37.3728 78.7934C37.7328 78.8634 37.9028 78.9734 37.9028 79.2034C37.9028 79.3834 37.7128 79.5834 37.1628 79.5834C36.6128 79.5834 36.3828 79.2934 36.3828 79.0034H34.8428C34.8728 80.0734 35.5328 80.8634 37.1628 80.8634ZM40.2002 80.7734H41.7402V77.8734C41.7402 77.2434 42.1802 76.8534 42.7302 76.8534C43.3402 76.8534 43.6102 77.2134 43.6102 77.8134V80.7734H45.1502V77.3334C45.1502 76.1734 44.3702 75.4534 43.2102 75.4534C42.5302 75.4534 42.0702 75.7034 41.7802 76.0434H41.7402V73.3734H40.2002V80.7734ZM46.8298 75.0134C47.4198 75.0134 47.7598 74.6734 47.7598 74.1134C47.7598 73.5634 47.4198 73.2234 46.8298 73.2234C46.2198 73.2234 45.8998 73.5634 45.8998 74.1134C45.8998 74.6734 46.2198 75.0134 46.8298 75.0134ZM46.0498 80.7734H47.5898V75.5434H46.0498V80.7734ZM48.4912 83.0634H50.0312V80.2734H50.0712C50.3212 80.5734 50.7212 80.8634 51.4612 80.8634C52.7812 80.8634 53.5812 79.7234 53.5812 78.1634C53.5812 76.5934 52.7612 75.4534 51.4612 75.4534C50.7212 75.4534 50.3212 75.7434 50.0712 76.0434H50.0312L49.8712 75.5434H48.4912V83.0634ZM50.9912 79.5134C50.2112 79.5134 49.9612 78.8934 49.9612 78.1634C49.9612 77.4334 50.2312 76.8034 50.9912 76.8034C51.7512 76.8034 52.0212 77.4334 52.0212 78.1634C52.0212 78.8934 51.7712 79.5134 50.9912 79.5134Z" fill="black"/>
</svg>
