<svg width="57" height="73" viewBox="0 0 57 73" fill="none" xmlns="http://www.w3.org/2000/svg">
<path d="M31.667 6.89657C22.6618 6.26241 15.1364 13.069 14.5445 21.7781H14.5022V22.2009C14.5022 23.6384 13.9526 25.879 13.2762 27.1896C12.5575 28.5424 11.8387 29.8532 11.2468 30.7832C10.6548 31.7132 11.3313 32.8971 12.4306 32.8971H14.5445V40.5915C14.5445 42.1557 15.8128 43.3818 17.3348 43.3818H21.7317V47.229C21.7317 47.9476 22.4503 48.4551 23.1269 48.2437L41.56 41.9867C42.1941 41.7753 42.6169 41.1834 42.6169 40.507V33.3198C45.1536 30.4027 46.6333 26.5977 46.5064 22.4123C46.2528 14.2954 39.7843 7.4888 31.667 6.89692L31.667 6.89657ZM31.5401 31.3751C31.2018 31.671 30.779 31.8401 30.314 31.8401C29.849 31.8401 29.4262 31.6709 29.0456 31.3751C28.7074 31.0792 28.496 30.614 28.496 30.0645C28.496 29.5573 28.6651 29.1345 29.0032 28.7962C29.3415 28.4579 29.7643 28.2889 30.2716 28.2889C30.7788 28.2889 31.2016 28.4581 31.5399 28.7962C31.8782 29.1345 32.0471 29.5573 32.0471 30.0645C32.0897 30.614 31.8783 31.0791 31.54 31.3751H31.5401ZM35.9792 20.4253C35.7256 20.9325 35.3873 21.3553 35.0068 21.7358C34.6262 22.1164 33.9498 22.7083 32.9774 23.5961L32.3432 24.2302C32.1741 24.3994 32.0473 24.5685 31.9627 24.7375C31.8782 24.9066 31.8358 25.0334 31.7935 25.2025C31.7513 25.3716 31.6666 25.6253 31.5821 26.0058C31.413 26.8091 30.948 27.2319 30.1869 27.2319C29.7641 27.2319 29.4258 27.105 29.13 26.8091C28.8341 26.5555 28.7072 26.1327 28.7072 25.6253C28.7072 24.9489 28.7917 24.3992 29.0031 23.8919C29.2145 23.4269 29.4681 22.9619 29.8064 22.6236C30.1447 22.2431 30.6097 21.8203 31.1592 21.3131C31.6665 20.8903 32.047 20.552 32.2584 20.2984C32.4698 20.087 32.6812 19.8334 32.8081 19.5373C32.9772 19.2414 33.0195 18.9454 33.0195 18.6495C33.0195 18.0154 32.7658 17.4657 32.3008 17.0429C31.8358 16.6201 31.2439 16.4088 30.4828 16.4088C29.595 16.4088 28.9608 16.6201 28.5803 17.0852C28.1575 17.5079 27.8192 18.1843 27.5234 19.0299C27.2697 19.9177 26.7623 20.3827 26.0014 20.3827C25.5786 20.3827 25.1981 20.2135 24.9022 19.9177C24.6911 19.5797 24.522 19.2414 24.522 18.861C24.522 18.1 24.7756 17.3391 25.2406 16.578C25.7056 15.817 26.4245 15.1828 27.3545 14.6755C28.2845 14.1683 29.3415 13.9145 30.5676 13.9145C31.709 13.9145 32.7237 14.1259 33.6115 14.5486C34.4993 14.9714 35.1757 15.5633 35.6409 16.282C36.1059 17.0006 36.3595 17.8039 36.3595 18.6495C36.3597 19.326 36.2328 19.9179 35.9791 20.4252L35.9792 20.4253Z" fill="black"/>
<path d="M5.44359 62.7734H3.43359L1.03359 69.6734V69.7734H2.69359L3.10359 68.4434H5.70359L6.11359 69.7734H7.85359V69.6734L5.44359 62.7734ZM3.53359 67.0634L4.38359 64.3434H4.42359L5.27359 67.0634H3.53359ZM8.45508 69.7734H9.99508V66.8734C9.99508 66.2434 10.3951 65.8534 10.9451 65.8534C11.5551 65.8534 11.8251 66.2134 11.8251 66.8134V69.7734H13.3651V66.3334C13.3651 65.1734 12.5851 64.4534 11.4251 64.4534C10.7451 64.4534 10.2851 64.7034 9.99508 65.0434H9.95508L9.83508 64.5434H8.45508V69.7734ZM16.6256 69.8634C18.3256 69.8634 19.2356 68.7234 19.2356 67.1634C19.2356 65.5934 18.3056 64.4534 16.6256 64.4534C14.9456 64.4534 14.0156 65.5934 14.0156 67.1634C14.0156 68.7334 14.9256 69.8634 16.6256 69.8634ZM16.6256 68.5134C15.9956 68.5134 15.5856 68.1134 15.5856 67.1634C15.5856 66.2234 15.9856 65.8034 16.6256 65.8034C17.2656 65.8034 17.6656 66.2134 17.6656 67.1634C17.6656 68.1134 17.2656 68.5134 16.6256 68.5134ZM19.9883 69.7734H21.5283V66.8734C21.5283 66.2434 21.9283 65.8534 22.4783 65.8534C23.0883 65.8534 23.3583 66.2134 23.3583 66.8134V69.7734H24.8983V66.3334C24.8983 65.1734 24.1183 64.4534 22.9583 64.4534C22.2783 64.4534 21.8183 64.7034 21.5283 65.0434H21.4883L21.3683 64.5434H19.9883V69.7734ZM26.5688 72.0634H28.2388L30.8688 64.6434V64.5434H29.2088L28.0788 68.2534H28.0388L26.9788 64.5434H25.3988V64.6434L27.0588 69.7734H27.3188L26.5688 71.9634V72.0634ZM37.5927 64.4534C36.8127 64.4534 36.3027 64.8234 36.0327 65.1634H36.0027C35.6927 64.7034 35.1527 64.4534 34.4427 64.4534C33.7627 64.4534 33.3027 64.7034 33.0127 65.0434H32.9727L32.8527 64.5434H31.4727V69.7734H33.0127V66.8734C33.0127 66.2434 33.4127 65.8534 33.9627 65.8534C34.5727 65.8534 34.7827 66.2134 34.7827 66.8134V69.7734H36.3027V66.8734C36.3027 66.2534 36.6227 65.8534 37.1727 65.8534C37.7827 65.8534 37.9927 66.2134 37.9927 66.8134V69.7734H39.5327V66.3334C39.5327 65.1734 38.7527 64.4534 37.5927 64.4534ZM42.7975 69.8634C44.4975 69.8634 45.4075 68.7234 45.4075 67.1634C45.4075 65.5934 44.4775 64.4534 42.7975 64.4534C41.1175 64.4534 40.1875 65.5934 40.1875 67.1634C40.1875 68.7334 41.0975 69.8634 42.7975 69.8634ZM42.7975 68.5134C42.1675 68.5134 41.7575 68.1134 41.7575 67.1634C41.7575 66.2234 42.1575 65.8034 42.7975 65.8034C43.4375 65.8034 43.8375 66.2134 43.8375 67.1634C43.8375 68.1134 43.4375 68.5134 42.7975 68.5134ZM49.4102 64.5434V67.4534C49.4102 68.0534 49.1602 68.4134 48.5602 68.4134C47.9502 68.4134 47.7002 68.0534 47.7002 67.4534V64.5434H46.1602V67.6834C46.1602 68.7934 46.8402 69.8634 48.5502 69.8634C48.5502 69.8634 48.5502 69.8634 48.5602 69.8634C50.2702 69.8634 50.9502 68.7934 50.9502 67.6834V64.5434H49.4102ZM54.0212 69.8634C55.3512 69.8634 56.3112 69.2734 56.3112 68.1934C56.3112 67.0934 55.5612 66.7234 54.7612 66.5734L53.7612 66.3834C53.5112 66.3334 53.3712 66.2234 53.3712 66.0234C53.3712 65.8234 53.6012 65.6634 53.9812 65.6634C54.5012 65.6634 54.6812 65.9634 54.6712 66.2034H56.1912C56.1912 65.2334 55.3712 64.4534 54.0112 64.4534C52.6112 64.4534 51.8612 65.1534 51.8612 66.0034C51.8612 67.0534 52.6212 67.4834 53.4612 67.6434L54.2312 67.7934C54.5912 67.8634 54.7612 67.9734 54.7612 68.2034C54.7612 68.3834 54.5712 68.5834 54.0212 68.5834C53.4712 68.5834 53.2412 68.2934 53.2412 68.0034H51.7012C51.7312 69.0734 52.3912 69.8634 54.0212 69.8634Z" fill="black"/>
</svg>
