<svg width="62" height="73" viewBox="0 0 62 73" fill="none" xmlns="http://www.w3.org/2000/svg">
<path d="M33.7791 35.6259C37.7803 34.0889 39.7872 29.5924 38.2503 25.5912C36.7133 21.59 32.2168 19.5831 28.2156 21.1201C24.2145 22.657 22.2075 27.1536 23.7445 31.1547C24.532 33.2125 26.1579 34.8384 28.2156 35.6259L22.9824 49.268C11.4489 44.8349 5.68214 31.8915 10.1152 20.3579C14.5482 8.82438 27.4789 3.05761 39.0124 7.49066C50.5459 11.9237 56.3126 24.8672 51.8796 36.4007C49.6059 42.3199 44.9316 46.9943 39.0124 49.268L33.7791 35.6259Z" fill="black"/>
<path d="M39.0129 50.0682C38.8986 50.0682 38.797 50.0428 38.6827 50.0047C38.4921 49.9158 38.3397 49.7634 38.2635 49.5602L33.0302 35.9181C32.8778 35.5116 33.081 35.0416 33.4875 34.8892C35.2277 34.216 36.5995 32.9204 37.3616 31.2183C38.1238 29.5162 38.1619 27.6236 37.5014 25.8834C36.1295 22.3014 32.0903 20.4977 28.4956 21.8695C24.9136 23.2413 23.1099 27.2806 24.4944 30.8753C25.2058 32.7171 26.6665 34.1779 28.4956 34.8892C28.9021 35.0416 29.118 35.5116 28.9529 35.9181L23.7196 49.5602C23.6434 49.7634 23.491 49.9158 23.3004 50.0047C23.1099 50.0936 22.8813 50.0936 22.6907 50.0174C16.9113 47.7946 12.3385 43.4631 9.82353 37.8107C7.30851 32.1582 7.14338 25.858 9.35355 20.0785C11.5891 14.2863 15.9205 9.71356 21.573 7.19853C27.2254 4.68351 33.5256 4.51838 39.3051 6.72855C45.0845 8.95143 49.6573 13.2829 52.1723 18.9353C54.6873 24.5878 54.8524 30.888 52.6423 36.6675C50.2924 42.7899 45.4402 47.6548 39.3178 50.0047C39.2035 50.0428 39.1145 50.0682 39.0129 50.0682ZM30.9852 6.77936C28.0002 6.77936 25.0279 7.40177 22.2208 8.65928C16.9621 11.0092 12.9228 15.2517 10.8524 20.6374C8.78195 26.0231 8.94708 31.8788 11.2843 37.1502C13.5198 42.1675 17.4956 46.0798 22.5129 48.2137L27.1746 36.0451C25.2566 35.0924 23.7577 33.4538 22.9829 31.4342C21.2935 27.0266 23.5037 22.06 27.9113 20.3579C32.3189 18.6686 37.2854 20.8787 38.9748 25.2864C39.8004 27.4203 39.7369 29.7575 38.797 31.8407C37.9713 33.6825 36.5614 35.1559 34.7704 36.0324L39.4321 48.201C44.7797 45.9146 49.0095 41.5451 51.0926 36.0959C53.163 30.7102 52.9979 24.8545 50.6607 19.5831C48.3108 14.3244 44.0683 10.2852 38.6827 8.2147C36.2185 7.26204 33.6018 6.77936 30.9852 6.77936Z" fill="black"/>
<path d="M50.9125 46.8291C50.6204 47.1213 50.4806 47.477 50.4806 47.8834C50.4806 48.3026 50.6331 48.6583 50.9252 48.9631C51.2174 49.2553 51.573 49.4077 51.9922 49.4077C52.4113 49.4077 52.7543 49.2553 53.0465 48.9631C53.3386 48.671 53.491 48.3026 53.491 47.8961C53.491 47.4897 53.3513 47.134 53.0592 46.8418C52.767 46.537 52.4113 46.3846 51.9922 46.3846C51.5603 46.3846 51.2046 46.5243 50.9125 46.8291ZM53.2624 49.1917C52.9067 49.5347 52.4876 49.6998 51.9922 49.6998C51.4841 49.6998 51.0522 49.522 50.6966 49.179C50.3409 48.8234 50.1758 48.3915 50.1758 47.8834C50.1758 47.3499 50.3663 46.9054 50.7474 46.5624C51.103 46.2321 51.5222 46.067 52.0049 46.067C52.513 46.067 52.9321 46.2448 53.2878 46.6005C53.6435 46.9562 53.8213 47.388 53.8213 47.8834C53.8086 48.4042 53.618 48.8361 53.2624 49.1917ZM52.1446 47.2864C52.0684 47.261 51.9668 47.2483 51.8398 47.2483H51.7127V47.8326H51.916C52.043 47.8326 52.1319 47.8072 52.2081 47.7564C52.2716 47.7056 52.3097 47.6294 52.3097 47.5151C52.3097 47.4007 52.2589 47.3245 52.1446 47.2864ZM51.1919 48.8996V46.88C51.319 46.88 51.5095 46.88 51.7508 46.88C52.0049 46.88 52.1446 46.88 52.17 46.88C52.3351 46.8927 52.4622 46.9308 52.5638 46.9816C52.7416 47.0832 52.8305 47.2356 52.8305 47.4643C52.8305 47.6294 52.7797 47.7564 52.6908 47.8326C52.6019 47.9088 52.4749 47.9596 52.3351 47.9723C52.4622 47.9977 52.5638 48.0358 52.6273 48.0867C52.7416 48.1883 52.8051 48.328 52.8051 48.5439V48.7218C52.8051 48.7472 52.8051 48.7599 52.8051 48.7853C52.8051 48.8107 52.8178 48.8234 52.8178 48.8488L52.8305 48.8996H52.3224C52.3097 48.8361 52.297 48.7472 52.2843 48.6201C52.2843 48.4931 52.2716 48.4169 52.2462 48.3788C52.2208 48.3026 52.17 48.2645 52.0938 48.2264C52.0557 48.2137 51.9922 48.201 51.916 48.1883L51.8016 48.1756H51.6873V48.8869H51.1919V48.8996Z" fill="black"/>
<path d="M4.60039 69.8634C6.85039 69.8634 8.00039 68.2734 8.00039 66.2734C8.00039 64.2634 6.85039 62.6834 4.60039 62.6834C2.34039 62.6834 1.20039 64.2634 1.20039 66.2734C1.20039 68.2734 2.34039 69.8634 4.60039 69.8634ZM4.60039 68.4434C3.44039 68.4434 2.80039 67.6834 2.80039 66.2734C2.80039 64.8634 3.43039 64.1034 4.60039 64.1034C5.76039 64.1034 6.40039 64.8634 6.40039 66.2734C6.40039 67.6834 5.76039 68.4434 4.60039 68.4434ZM8.80273 72.0634H10.3427V69.2734H10.3827C10.6327 69.5734 11.0327 69.8634 11.7727 69.8634C13.0927 69.8634 13.8927 68.7234 13.8927 67.1634C13.8927 65.5934 13.0727 64.4534 11.7727 64.4534C11.0327 64.4534 10.6327 64.7434 10.3827 65.0434H10.3427L10.1827 64.5434H8.80273V72.0634ZM11.3027 68.5134C10.5227 68.5134 10.2727 67.8934 10.2727 67.1634C10.2727 66.4334 10.5427 65.8034 11.3027 65.8034C12.0627 65.8034 12.3327 66.4334 12.3327 67.1634C12.3327 67.8934 12.0827 68.5134 11.3027 68.5134ZM16.9826 69.8634C18.4126 69.8634 19.2426 69.0334 19.3826 68.0934H17.8926C17.8026 68.3334 17.5526 68.6134 16.9826 68.6134C16.2826 68.6134 15.9726 68.1834 15.9626 67.5734H19.4526V67.0034C19.4526 65.5834 18.5526 64.4534 16.9526 64.4534C15.2526 64.4534 14.3926 65.6834 14.3926 67.1634C14.3926 68.6634 15.3326 69.8634 16.9826 69.8634ZM15.9726 66.6034C16.0026 66.1034 16.2926 65.7134 16.9526 65.7134C17.5626 65.7134 17.8526 66.1034 17.8826 66.6034H15.9726ZM20.1992 69.7734H21.7392V66.8734C21.7392 66.2434 22.1392 65.8534 22.6892 65.8534C23.2992 65.8534 23.5692 66.2134 23.5692 66.8134V69.7734H25.1092V66.3334C25.1092 65.1734 24.3292 64.4534 23.1692 64.4534C22.4892 64.4534 22.0292 64.7034 21.7392 65.0434H21.6992L21.5792 64.5434H20.1992V69.7734ZM31.4625 69.8634C33.5625 69.8634 34.3825 68.9634 34.3825 67.7134C34.3825 66.3434 33.3925 65.8134 32.0925 65.5434L31.1425 65.3434C30.4925 65.2034 30.3525 64.9634 30.3525 64.6934C30.3525 64.4034 30.6325 64.0834 31.4525 64.0834C32.2825 64.0834 32.6325 64.5034 32.6725 64.9634H34.2625C34.2525 63.6234 33.0725 62.6834 31.4725 62.6834C29.8225 62.6834 28.7425 63.5134 28.7425 64.6934C28.7425 66.0334 29.6925 66.5334 30.9025 66.7934L31.9225 67.0134C32.5425 67.1434 32.7725 67.3734 32.7725 67.7534C32.7725 68.1734 32.4225 68.4734 31.4625 68.4734C30.7025 68.4734 30.1725 68.1334 30.1025 67.3734H28.5125C28.6025 68.8834 29.5925 69.8634 31.4625 69.8634ZM37.4909 69.8634C39.1909 69.8634 40.1009 68.7234 40.1009 67.1634C40.1009 65.5934 39.1709 64.4534 37.4909 64.4534C35.8109 64.4534 34.8809 65.5934 34.8809 67.1634C34.8809 68.7334 35.7909 69.8634 37.4909 69.8634ZM37.4909 68.5134C36.8609 68.5134 36.4509 68.1134 36.4509 67.1634C36.4509 66.2234 36.8509 65.8034 37.4909 65.8034C38.1309 65.8034 38.5309 66.2134 38.5309 67.1634C38.5309 68.1134 38.1309 68.5134 37.4909 68.5134ZM44.1035 64.5434V67.4534C44.1035 68.0534 43.8535 68.4134 43.2535 68.4134C42.6435 68.4134 42.3935 68.0534 42.3935 67.4534V64.5434H40.8535V67.6834C40.8535 68.7934 41.5335 69.8634 43.2435 69.8634C43.2435 69.8634 43.2435 69.8634 43.2535 69.8634C44.9635 69.8634 45.6435 68.7934 45.6435 67.6834V64.5434H44.1035ZM46.6445 69.7734H48.0845V67.1934C48.0845 66.3534 48.5545 65.8634 49.2845 65.8634H49.7845V64.4534H49.4245C48.7545 64.4534 48.3145 64.8434 48.0845 65.3034H48.0445L47.9245 64.5434H46.6445V69.7734ZM52.9113 69.8634C54.4313 69.8634 55.2213 68.9234 55.2913 67.7134H53.7413C53.6913 68.1734 53.3713 68.5134 52.8713 68.5134C52.2213 68.5134 51.8513 68.1034 51.8513 67.1534C51.8513 66.2134 52.2213 65.8034 52.8713 65.8034C53.3713 65.8034 53.6913 66.1434 53.7413 66.6034H55.2913C55.2213 65.3934 54.4213 64.4534 52.8713 64.4534C51.2013 64.4534 50.2813 65.5734 50.2813 67.1534C50.2813 68.7434 51.2413 69.8634 52.9113 69.8634ZM58.3791 69.8634C59.8091 69.8634 60.6391 69.0334 60.7791 68.0934H59.2891C59.1991 68.3334 58.9491 68.6134 58.3791 68.6134C57.6791 68.6134 57.3691 68.1834 57.3591 67.5734H60.8491V67.0034C60.8491 65.5834 59.9491 64.4534 58.3491 64.4534C56.6491 64.4534 55.7891 65.6834 55.7891 67.1634C55.7891 68.6634 56.7291 69.8634 58.3791 69.8634ZM57.3691 66.6034C57.3991 66.1034 57.6891 65.7134 58.3491 65.7134C58.9591 65.7134 59.2491 66.1034 59.2791 66.6034H57.3691Z" fill="black"/>
</svg>
