<svg width="56" height="72" viewBox="0 0 56 72" fill="none" xmlns="http://www.w3.org/2000/svg">
<path d="M42.9192 6.90625H13.322C11.7521 6.90625 10.2463 7.52996 9.13611 8.64002C8.02594 9.75007 7.40234 11.2558 7.40234 12.8259V42.4231C7.40234 43.993 8.02606 45.4988 9.13611 46.6089C10.2462 47.7191 11.7519 48.3427 13.322 48.3427H42.9192C44.4891 48.3427 45.9949 47.719 47.105 46.6089C48.2152 45.4989 48.8388 43.9931 48.8388 42.4231V12.8259C48.8388 11.256 48.2151 9.75019 47.105 8.64002C45.995 7.52984 44.4892 6.90625 42.9192 6.90625ZM39.9595 37.9834C39.9595 38.3758 39.8036 38.7523 39.526 39.0298C39.2485 39.3074 38.8721 39.4632 38.4796 39.4632H32.5602C32.0314 39.4632 31.5429 39.1811 31.2785 38.7233C31.0142 38.2654 31.0142 37.7013 31.2785 37.2434C31.5429 36.7856 32.0314 36.5035 32.5602 36.5035H34.9073L19.2413 20.8375V23.1846C19.2413 23.7133 18.9592 24.2019 18.5014 24.4663C18.0435 24.7306 17.4793 24.7306 17.0215 24.4663C16.5636 24.2019 16.2816 23.7134 16.2816 23.1846V17.2652C16.2816 16.8727 16.4374 16.4963 16.715 16.2188C16.9925 15.9411 17.3689 15.7853 17.7614 15.7853H23.6809C24.2096 15.7853 24.6981 16.0674 24.9625 16.5252C25.2269 16.9831 25.2269 17.5473 24.9625 18.0051C24.6981 18.4629 24.2096 18.745 23.6809 18.745H21.3337L36.9998 34.4111V32.0639C36.9998 31.5352 37.2818 31.0467 37.7397 30.7823C38.1975 30.5179 38.7617 30.5179 39.2195 30.7823C39.6774 31.0466 39.9595 31.5351 39.9595 32.0639V37.9834Z" fill="black"/>
<path d="M11.8102 69.8634C13.9102 69.8634 14.7302 68.9634 14.7302 67.7134C14.7302 66.3434 13.7402 65.8134 12.4402 65.5434L11.4902 65.3434C10.8402 65.2034 10.7002 64.9634 10.7002 64.6934C10.7002 64.4034 10.9802 64.0834 11.8002 64.0834C12.6302 64.0834 12.9802 64.5034 13.0202 64.9634H14.6102C14.6002 63.6234 13.4202 62.6834 11.8202 62.6834C10.1702 62.6834 9.09016 63.5134 9.09016 64.6934C9.09016 66.0334 10.0402 66.5334 11.2502 66.7934L12.2702 67.0134C12.8902 67.1434 13.1202 67.3734 13.1202 67.7534C13.1202 68.1734 12.7702 68.4734 11.8102 68.4734C11.0502 68.4734 10.5202 68.1334 10.4502 67.3734H8.86016C8.95016 68.8834 9.94016 69.8634 11.8102 69.8634ZM17.8585 69.8634C19.3785 69.8634 20.1685 68.9234 20.2385 67.7134H18.6885C18.6385 68.1734 18.3185 68.5134 17.8185 68.5134C17.1685 68.5134 16.7985 68.1034 16.7985 67.1534C16.7985 66.2134 17.1685 65.8034 17.8185 65.8034C18.3185 65.8034 18.6385 66.1434 18.6885 66.6034H20.2385C20.1685 65.3934 19.3685 64.4534 17.8185 64.4534C16.1485 64.4534 15.2285 65.5734 15.2285 67.1534C15.2285 68.7434 16.1885 69.8634 17.8585 69.8634ZM22.5663 69.8634C23.2163 69.8634 23.6763 69.6334 23.9663 69.3034H24.0063L24.1163 69.7734H25.4963V66.3334C25.4963 65.2434 24.6363 64.4534 23.2063 64.4534C21.6663 64.4534 20.9563 65.2934 20.9563 66.2734H22.3963C22.3963 65.9534 22.6763 65.6934 23.1563 65.6934C23.7263 65.6934 23.9563 65.9734 23.9563 66.3334V66.7634C23.7463 66.6934 23.2263 66.6134 22.8363 66.6134C21.3963 66.6134 20.7363 67.2534 20.7363 68.2234C20.7363 69.1534 21.3863 69.8634 22.5663 69.8634ZM22.9563 68.6634C22.4963 68.6634 22.2563 68.4434 22.2563 68.1434C22.2563 67.8634 22.5163 67.6434 23.0163 67.6434C23.3163 67.6434 23.6363 67.6834 23.9563 67.8134V67.8634C23.9563 68.2934 23.5863 68.6634 22.9563 68.6634ZM26.3965 69.7734H27.9365V62.3734H26.3965V69.7734ZM30.4179 69.8634C31.0679 69.8634 31.5279 69.6334 31.8179 69.3034H31.8579L31.9679 69.7734H33.3479V66.3334C33.3479 65.2434 32.4879 64.4534 31.0579 64.4534C29.5179 64.4534 28.8079 65.2934 28.8079 66.2734H30.2479C30.2479 65.9534 30.5279 65.6934 31.0079 65.6934C31.5779 65.6934 31.8079 65.9734 31.8079 66.3334V66.7634C31.5979 66.6934 31.0779 66.6134 30.6879 66.6134C29.2479 66.6134 28.5879 67.2534 28.5879 68.2234C28.5879 69.1534 29.2379 69.8634 30.4179 69.8634ZM30.8079 68.6634C30.3479 68.6634 30.1079 68.4434 30.1079 68.1434C30.1079 67.8634 30.3679 67.6434 30.8679 67.6434C31.1679 67.6434 31.4879 67.6834 31.8079 67.8134V67.8634C31.8079 68.2934 31.4379 68.6634 30.8079 68.6634ZM37.218 69.8634C38.538 69.8634 39.338 68.7234 39.338 67.1534C39.338 65.5934 38.538 64.4534 37.218 64.4534C36.478 64.4534 36.078 64.7434 35.828 65.0434H35.788V62.3734H34.248V69.7734H35.628L35.788 69.2734H35.828C36.078 69.5734 36.478 69.8634 37.218 69.8634ZM36.748 68.5134C35.988 68.5134 35.718 67.8834 35.718 67.1534C35.718 66.4234 35.968 65.8034 36.748 65.8034C37.528 65.8034 37.778 66.4234 37.778 67.1534C37.778 67.8834 37.508 68.5134 36.748 68.5134ZM40.0879 69.7734H41.6279V62.3734H40.0879V69.7734ZM44.8693 69.8634C46.2993 69.8634 47.1293 69.0334 47.2693 68.0934H45.7793C45.6893 68.3334 45.4393 68.6134 44.8693 68.6134C44.1693 68.6134 43.8593 68.1834 43.8493 67.5734H47.3393V67.0034C47.3393 65.5834 46.4393 64.4534 44.8393 64.4534C43.1393 64.4534 42.2793 65.6834 42.2793 67.1634C42.2793 68.6634 43.2193 69.8634 44.8693 69.8634ZM43.8593 66.6034C43.8893 66.1034 44.1793 65.7134 44.8393 65.7134C45.4493 65.7134 45.7393 66.1034 45.7693 66.6034H43.8593Z" fill="black"/>
</svg>
