<svg width="56" height="72" viewBox="0 0 56 72" fill="none" xmlns="http://www.w3.org/2000/svg">
<path d="M50.1549 27.2965C48.1143 23.2256 44.9964 19.7889 41.1377 17.3566C37.1716 14.8568 32.5848 13.5358 27.8746 13.5358C23.1645 13.5358 18.5779 14.8568 14.612 17.3566C10.7531 19.7887 7.63476 23.2253 5.59397 27.2965L5.42969 27.6241L5.59397 27.9517C7.63455 32.0226 10.7529 35.4594 14.612 37.8916C18.5781 40.3914 23.1641 41.7125 27.8746 41.7125C32.5852 41.7125 37.1718 40.3914 41.1377 37.8916C44.9966 35.4596 48.1145 32.0229 50.1549 27.9517L50.3192 27.6241L50.1549 27.2965ZM27.8742 34.9851C23.8155 34.9851 20.5135 31.6829 20.5135 27.6243C20.5135 23.5657 23.8156 20.2635 27.8742 20.2635C31.9328 20.2635 35.235 23.5657 35.235 27.6243C35.235 31.6829 31.9328 34.9851 27.8742 34.9851Z" fill="black"/>
<path d="M5.60977 69.7734H7.49977L9.96977 62.8734V62.7734H8.14977L6.55977 67.9034H6.51977L4.89977 62.7734H3.10977V62.8734L5.60977 69.7734ZM12.2072 69.8634C13.6372 69.8634 14.4672 69.0334 14.6072 68.0934H13.1172C13.0272 68.3334 12.7772 68.6134 12.2072 68.6134C11.5072 68.6134 11.1972 68.1834 11.1872 67.5734H14.6772V67.0034C14.6772 65.5834 13.7772 64.4534 12.1772 64.4534C10.4772 64.4534 9.61719 65.6834 9.61719 67.1634C9.61719 68.6634 10.5572 69.8634 12.2072 69.8634ZM11.1972 66.6034C11.2272 66.1034 11.5172 65.7134 12.1772 65.7134C12.7872 65.7134 13.0772 66.1034 13.1072 66.6034H11.1972ZM15.4238 69.7734H16.8638V67.1934C16.8638 66.3534 17.3338 65.8634 18.0638 65.8634H18.5638V64.4534H18.2038C17.5338 64.4534 17.0938 64.8434 16.8638 65.3034H16.8238L16.7038 64.5434H15.4238V69.7734ZM20.0905 64.0134C20.6805 64.0134 21.0205 63.6734 21.0205 63.1134C21.0205 62.5634 20.6805 62.2234 20.0905 62.2234C19.4805 62.2234 19.1605 62.5634 19.1605 63.1134C19.1605 63.6734 19.4805 64.0134 20.0905 64.0134ZM19.3105 69.7734H20.8505V64.5434H19.3105V69.7734ZM22.362 69.7734H23.902V65.8434H25.142V64.5434H23.902V64.2734C23.902 63.7734 24.192 63.5934 24.692 63.5934C24.842 63.5934 25.022 63.6134 25.192 63.6434V62.3434C25.012 62.3034 24.812 62.2734 24.552 62.2734C23.332 62.2734 22.362 62.9934 22.362 64.2734V64.5434H21.452V65.8434H22.362V69.7734ZM26.8191 64.0134C27.4091 64.0134 27.7491 63.6734 27.7491 63.1134C27.7491 62.5634 27.4091 62.2234 26.8191 62.2234C26.2091 62.2234 25.8891 62.5634 25.8891 63.1134C25.8891 63.6734 26.2091 64.0134 26.8191 64.0134ZM26.0391 69.7734H27.5791V64.5434H26.0391V69.7734ZM30.8605 69.8634C32.3805 69.8634 33.1705 68.9234 33.2405 67.7134H31.6905C31.6405 68.1734 31.3205 68.5134 30.8205 68.5134C30.1705 68.5134 29.8005 68.1034 29.8005 67.1534C29.8005 66.2134 30.1705 65.8034 30.8205 65.8034C31.3205 65.8034 31.6405 66.1434 31.6905 66.6034H33.2405C33.1705 65.3934 32.3705 64.4534 30.8205 64.4534C29.1505 64.4534 28.2305 65.5734 28.2305 67.1534C28.2305 68.7434 29.1905 69.8634 30.8605 69.8634ZM35.5683 69.8634C36.2183 69.8634 36.6783 69.6334 36.9683 69.3034H37.0083L37.1183 69.7734H38.4983V66.3334C38.4983 65.2434 37.6383 64.4534 36.2083 64.4534C34.6683 64.4534 33.9583 65.2934 33.9583 66.2734H35.3983C35.3983 65.9534 35.6783 65.6934 36.1583 65.6934C36.7283 65.6934 36.9583 65.9734 36.9583 66.3334V66.7634C36.7483 66.6934 36.2283 66.6134 35.8383 66.6134C34.3983 66.6134 33.7383 67.2534 33.7383 68.2234C33.7383 69.1534 34.3883 69.8634 35.5683 69.8634ZM35.9583 68.6634C35.4983 68.6634 35.2583 68.4434 35.2583 68.1434C35.2583 67.8634 35.5183 67.6434 36.0183 67.6434C36.3183 67.6434 36.6383 67.6834 36.9583 67.8134V67.8634C36.9583 68.2934 36.5883 68.6634 35.9583 68.6634ZM42.3684 69.8634C43.6884 69.8634 44.4884 68.7234 44.4884 67.1534C44.4884 65.5934 43.6884 64.4534 42.3684 64.4534C41.6284 64.4534 41.2284 64.7434 40.9784 65.0434H40.9384V62.3734H39.3984V69.7734H40.7784L40.9384 69.2734H40.9784C41.2284 69.5734 41.6284 69.8634 42.3684 69.8634ZM41.8984 68.5134C41.1384 68.5134 40.8684 67.8834 40.8684 67.1534C40.8684 66.4234 41.1184 65.8034 41.8984 65.8034C42.6784 65.8034 42.9284 66.4234 42.9284 67.1534C42.9284 67.8834 42.6584 68.5134 41.8984 68.5134ZM45.2383 69.7734H46.7783V62.3734H45.2383V69.7734ZM50.0197 69.8634C51.4497 69.8634 52.2797 69.0334 52.4197 68.0934H50.9297C50.8397 68.3334 50.5897 68.6134 50.0197 68.6134C49.3197 68.6134 49.0097 68.1834 48.9997 67.5734H52.4897V67.0034C52.4897 65.5834 51.5897 64.4534 49.9897 64.4534C48.2897 64.4534 47.4297 65.6834 47.4297 67.1634C47.4297 68.6634 48.3697 69.8634 50.0197 69.8634ZM49.0097 66.6034C49.0397 66.1034 49.3297 65.7134 49.9897 65.7134C50.5997 65.7134 50.8897 66.1034 50.9197 66.6034H49.0097Z" fill="black"/>
</svg>
